<mxfile host="65bd71144e" scale="1" border="10">
    <diagram id="Frq4URAc4n9S_q0fajzb" name="Page-1">
        <mxGraphModel dx="1538" dy="1277" grid="1" gridSize="10" guides="1" tooltips="1" connect="1" arrows="1" fold="1" page="1" pageScale="1" pageWidth="850" pageHeight="1100" math="0" shadow="0">
            <root>
                <mxCell id="0"/>
                <mxCell id="1" parent="0"/>
                <mxCell id="7" value="Application" style="shape=folder;fontStyle=1;tabWidth=110;tabHeight=30;tabPosition=left;html=1;boundedLbl=1;labelInHeader=1;container=1;collapsible=0;" vertex="1" parent="1">
                    <mxGeometry x="20" y="40" width="780" height="600" as="geometry"/>
                </mxCell>
                <mxCell id="8" value="" style="html=1;strokeColor=none;resizeWidth=1;resizeHeight=1;fillColor=none;part=1;connectable=0;allowArrows=0;deletable=0;" vertex="1" parent="7">
                    <mxGeometry width="800.2597402597398" height="518.8067444876784" relative="1" as="geometry">
                        <mxPoint y="30" as="offset"/>
                    </mxGeometry>
                </mxCell>
                <mxCell id="38" value="0..*" style="edgeLabel;html=1;align=center;verticalAlign=middle;resizable=0;points=[];" vertex="1" connectable="0" parent="7">
                    <mxGeometry x="349.99999999999983" y="80.81047469983363" as="geometry">
                        <mxPoint x="39" y="168" as="offset"/>
                    </mxGeometry>
                </mxCell>
                <mxCell id="50" value="Has" style="edgeLabel;html=1;align=center;verticalAlign=middle;resizable=0;points=[];" vertex="1" connectable="0" parent="7">
                    <mxGeometry x="400" y="190.0018700754497" as="geometry">
                        <mxPoint x="-50" y="140" as="offset"/>
                    </mxGeometry>
                </mxCell>
                <mxCell id="26" value="Supplement&#10;" style="swimlane;fontStyle=1;align=center;verticalAlign=top;childLayout=stackLayout;horizontal=1;startSize=26;horizontalStack=0;resizeParent=1;resizeParentMax=0;resizeLast=0;collapsible=1;marginBottom=0;" vertex="1" parent="1">
                    <mxGeometry x="445" y="250" width="330" height="130" as="geometry"/>
                </mxCell>
                <mxCell id="27" value="+ supplementPay: Double&#10;+ startTimeInHours: Double&#10;+ endTimeInHours: Double&#10;+ supplementType: String" style="text;strokeColor=none;fillColor=none;align=left;verticalAlign=top;spacingLeft=4;spacingRight=4;overflow=hidden;rotatable=0;points=[[0,0.5],[1,0.5]];portConstraint=eastwest;" vertex="1" parent="26">
                    <mxGeometry y="26" width="330" height="64" as="geometry"/>
                </mxCell>
                <mxCell id="28" value="" style="line;strokeWidth=1;fillColor=none;align=left;verticalAlign=middle;spacingTop=-1;spacingLeft=3;spacingRight=3;rotatable=0;labelPosition=right;points=[];portConstraint=eastwest;strokeColor=inherit;" vertex="1" parent="26">
                    <mxGeometry y="90" width="330" height="8" as="geometry"/>
                </mxCell>
                <mxCell id="29" value="+ &lt;&lt;Create&gt;&gt; Supplement(Double, Double, Double, String)" style="text;strokeColor=none;fillColor=none;align=left;verticalAlign=top;spacingLeft=4;spacingRight=4;overflow=hidden;rotatable=0;points=[[0,0.5],[1,0.5]];portConstraint=eastwest;" vertex="1" parent="26">
                    <mxGeometry y="98" width="330" height="32" as="geometry"/>
                </mxCell>
                <mxCell id="35" style="edgeStyle=none;html=1;exitX=1;exitY=0.5;exitDx=0;exitDy=0;endArrow=diamondThin;endFill=0;strokeWidth=1;endSize=13;" edge="1" parent="1" source="31" target="26">
                    <mxGeometry relative="1" as="geometry">
                        <mxPoint x="434.9999999999999" y="133" as="targetPoint"/>
                        <Array as="points">
                            <mxPoint x="395" y="128"/>
                            <mxPoint x="395" y="315"/>
                        </Array>
                    </mxGeometry>
                </mxCell>
                <mxCell id="36" value="0..*" style="edgeLabel;html=1;align=center;verticalAlign=middle;resizable=0;points=[];" vertex="1" connectable="0" parent="35">
                    <mxGeometry x="-0.5553" y="2" relative="1" as="geometry">
                        <mxPoint x="-42" y="-17" as="offset"/>
                    </mxGeometry>
                </mxCell>
                <mxCell id="37" value="Has" style="edgeLabel;html=1;align=center;verticalAlign=middle;resizable=0;points=[];" vertex="1" connectable="0" parent="35">
                    <mxGeometry x="-0.0747" relative="1" as="geometry">
                        <mxPoint x="15" y="-7" as="offset"/>
                    </mxGeometry>
                </mxCell>
                <mxCell id="30" value="User" style="swimlane;fontStyle=1;align=center;verticalAlign=top;childLayout=stackLayout;horizontal=1;startSize=26;horizontalStack=0;resizeParent=1;resizeParentMax=0;resizeLast=0;collapsible=1;marginBottom=0;" vertex="1" parent="1">
                    <mxGeometry x="34.99974025974026" y="90" width="303.8999999999998" height="84" as="geometry"/>
                </mxCell>
                <mxCell id="31" value="+ hourlySalary: Double" style="text;strokeColor=none;fillColor=none;align=left;verticalAlign=top;spacingLeft=4;spacingRight=4;overflow=hidden;rotatable=0;points=[[0,0.5],[1,0.5]];portConstraint=eastwest;" vertex="1" parent="30">
                    <mxGeometry y="26" width="303.8999999999998" height="24" as="geometry"/>
                </mxCell>
                <mxCell id="32" value="" style="line;strokeWidth=1;fillColor=none;align=left;verticalAlign=middle;spacingTop=-1;spacingLeft=3;spacingRight=3;rotatable=0;labelPosition=right;points=[];portConstraint=eastwest;strokeColor=inherit;" vertex="1" parent="30">
                    <mxGeometry y="50" width="303.8999999999998" height="8" as="geometry"/>
                </mxCell>
                <mxCell id="33" value="+ &lt;&lt;Create&gt;&gt; User(Double, ArrayList&lt;Supplement&gt;)" style="text;strokeColor=none;fillColor=none;align=left;verticalAlign=top;spacingLeft=4;spacingRight=4;overflow=hidden;rotatable=0;points=[[0,0.5],[1,0.5]];portConstraint=eastwest;" vertex="1" parent="30">
                    <mxGeometry y="58" width="303.8999999999998" height="26" as="geometry"/>
                </mxCell>
                <mxCell id="43" style="edgeStyle=none;html=1;entryX=0;entryY=0.5;entryDx=0;entryDy=0;strokeWidth=1;endArrow=none;endFill=0;endSize=13;exitX=1;exitY=0.5;exitDx=0;exitDy=0;" edge="1" parent="1" source="33" target="40">
                    <mxGeometry relative="1" as="geometry">
                        <Array as="points">
                            <mxPoint x="365" y="161"/>
                            <mxPoint x="365" y="478"/>
                        </Array>
                    </mxGeometry>
                </mxCell>
                <mxCell id="46" value="0..*" style="edgeLabel;html=1;align=center;verticalAlign=middle;resizable=0;points=[];" vertex="1" connectable="0" parent="43">
                    <mxGeometry x="-0.5388" y="-2" relative="1" as="geometry">
                        <mxPoint x="-8" y="-83" as="offset"/>
                    </mxGeometry>
                </mxCell>
                <mxCell id="48" value="1" style="edgeLabel;html=1;align=center;verticalAlign=middle;resizable=0;points=[];" vertex="1" connectable="0" parent="43">
                    <mxGeometry x="-0.1551" y="2" relative="1" as="geometry">
                        <mxPoint x="58" y="146" as="offset"/>
                    </mxGeometry>
                </mxCell>
                <mxCell id="53" value="DataReader" style="shape=folder;fontStyle=1;tabWidth=110;tabHeight=30;tabPosition=left;html=1;boundedLbl=1;labelInHeader=1;container=1;collapsible=0;" vertex="1" parent="1">
                    <mxGeometry x="20" y="680" width="780" height="280" as="geometry"/>
                </mxCell>
                <mxCell id="54" value="" style="html=1;strokeColor=none;resizeWidth=1;resizeHeight=1;fillColor=none;part=1;connectable=0;allowArrows=0;deletable=0;" vertex="1" parent="53">
                    <mxGeometry width="779.9999999999999" height="196" relative="1" as="geometry">
                        <mxPoint y="30" as="offset"/>
                    </mxGeometry>
                </mxCell>
                <mxCell id="55" value="DataReader" style="swimlane;fontStyle=1;align=center;verticalAlign=top;childLayout=stackLayout;horizontal=1;startSize=26;horizontalStack=0;resizeParent=1;resizeParentMax=0;resizeLast=0;collapsible=1;marginBottom=0;" vertex="1" parent="53">
                    <mxGeometry x="80.51612903225805" y="95" width="161.0322580645161" height="60" as="geometry"/>
                </mxCell>
                <mxCell id="57" value="" style="line;strokeWidth=1;fillColor=none;align=left;verticalAlign=middle;spacingTop=-1;spacingLeft=3;spacingRight=3;rotatable=0;labelPosition=right;points=[];portConstraint=eastwest;strokeColor=inherit;" vertex="1" parent="55">
                    <mxGeometry y="26" width="161.0322580645161" height="8" as="geometry"/>
                </mxCell>
                <mxCell id="58" value="+ DataReader(String)" style="text;strokeColor=none;fillColor=none;align=left;verticalAlign=top;spacingLeft=4;spacingRight=4;overflow=hidden;rotatable=0;points=[[0,0.5],[1,0.5]];portConstraint=eastwest;" vertex="1" parent="55">
                    <mxGeometry y="34" width="161.0322580645161" height="26" as="geometry"/>
                </mxCell>
                <mxCell id="39" value="WorkDay" style="swimlane;fontStyle=1;align=center;verticalAlign=top;childLayout=stackLayout;horizontal=1;startSize=26;horizontalStack=0;resizeParent=1;resizeParentMax=0;resizeLast=0;collapsible=1;marginBottom=0;" vertex="1" parent="1">
                    <mxGeometry x="445" y="410" width="330" height="190" as="geometry"/>
                </mxCell>
                <mxCell id="40" value="- startTimeInHours: Double&#10;- endTimeInHours: Double&#10;- breakTimeInHours: Double&#10;- workdayType: String&#10;- Salary: Double " style="text;strokeColor=none;fillColor=none;align=left;verticalAlign=top;spacingLeft=4;spacingRight=4;overflow=hidden;rotatable=0;points=[[0,0.5],[1,0.5]];portConstraint=eastwest;" vertex="1" parent="39">
                    <mxGeometry y="26" width="330" height="84" as="geometry"/>
                </mxCell>
                <mxCell id="41" value="" style="line;strokeWidth=1;fillColor=none;align=left;verticalAlign=middle;spacingTop=-1;spacingLeft=3;spacingRight=3;rotatable=0;labelPosition=right;points=[];portConstraint=eastwest;strokeColor=inherit;" vertex="1" parent="39">
                    <mxGeometry y="110" width="330" height="8" as="geometry"/>
                </mxCell>
                <mxCell id="42" value="+ &lt;&lt;Create&gt;&gt; WorkDay(String, String, String, String, User)&#10;+ calculateSalary()&#10;+ getSalary()&#10;- calculateSalary()" style="text;strokeColor=none;fillColor=none;align=left;verticalAlign=top;spacingLeft=4;spacingRight=4;overflow=hidden;rotatable=0;points=[[0,0.5],[1,0.5]];portConstraint=eastwest;" vertex="1" parent="39">
                    <mxGeometry y="118" width="330" height="72" as="geometry"/>
                </mxCell>
            </root>
        </mxGraphModel>
    </diagram>
</mxfile>